<svg width="30" height="30" viewBox="0 0 30 30" fill="none" xmlns="http://www.w3.org/2000/svg">
<rect width="30" height="30" rx="10" fill="#FFBB03"/>
<path d="M14.1 24V18.6H17.25C17.61 18.6 17.925 18.735 18.195 19.005C18.465 19.275 18.6 19.59 18.6 19.95V20.85C18.6 21.21 18.465 21.525 18.195 21.795C17.925 22.065 17.61 22.2 17.25 22.2H15.45V24H14.1ZM19.5 24V18.6H20.85V20.4H22.65V18.6H24V24H22.65V21.75H20.85V24H19.5ZM15.45 20.85H17.25V19.95H15.45V20.85ZM12.3 23.955C10.47 23.745 8.9625 22.9575 7.7775 21.5925C6.5925 20.2275 6 18.57 6 16.62C6 15.12 6.5964 13.4889 7.7892 11.7267C8.982 9.9645 10.7856 8.0556 13.2 6C15.615 8.055 17.4189 9.9639 18.6117 11.7267C19.8045 13.4895 20.4006 15.1206 20.4 16.62V16.8H14.1C13.605 16.8 13.1814 16.9764 12.8292 17.3292C12.477 17.682 12.3006 18.1056 12.3 18.6V23.955Z" fill="white"/>
</svg>
