<svg width="30" height="30" viewBox="0 0 30 30" fill="none" xmlns="http://www.w3.org/2000/svg">
<rect width="30" height="30" rx="10" fill="white"/>
<path d="M19.9943 6C18.5343 7.17147 17.5553 8.53584 16.7693 9.97649C17.2504 10.271 17.7441 10.5446 18.2489 10.7964L21.658 12.1019C22.1842 12.2469 22.7162 12.3701 23.2527 12.471C23.771 10.8255 24.0161 9.1796 23.9992 7.53411L19.9944 6.00008L19.9943 6ZM9.74462 6.1488L10.326 8.64035L12.9747 9.26853L12.4756 6.79394L9.74462 6.1488ZM9.06874 6.41143L7.63865 8.23482L8.11338 10.6135L9.63056 8.81929L9.06874 6.41143ZM10.136 9.33177L8.71105 11.0181L10.715 11.3141C10.9919 11.2335 11.27 11.1573 11.5492 11.0852L12.6103 9.91904L10.136 9.33177ZM16.6885 10.764L17.0257 13.0234C17.2527 13.2558 17.4727 13.4934 17.6837 13.7373L21.1036 15.0472L22.8445 13.1213C20.7424 12.6956 18.6837 11.9393 16.6885 10.7639L16.6885 10.764ZM13.996 11.2811C12.1012 11.6397 10.2184 12.121 8.34034 12.9165C9.90865 14.2542 11.2925 15.6918 12.4119 17.2708L18.1436 15.5571C17.1244 13.9516 15.6082 12.6033 13.9959 11.281L13.996 11.2811ZM7.59309 13.2222C6.80108 15.1505 6.14713 17.1058 6 19.25C6.94252 21.2785 8.69684 22.7255 10.255 23.8414L11.8868 17.7647C10.7353 16.1213 9.27261 14.6222 7.59309 13.2222ZM18.5553 16.1822L12.5748 17.9705L10.9557 24C12.9598 23.6988 14.9506 23.1611 16.9417 22.1492C17.9002 20.0966 18.1135 18.3245 18.5552 16.1823L18.5553 16.1822Z" fill="#6796D0"/>
</svg>
