<svg width="30" height="30" viewBox="0 0 30 30" fill="none" xmlns="http://www.w3.org/2000/svg">
<rect width="30" height="30" rx="10" fill="white"/>
<path d="M15.8344 17.7333V9.58331C15.8344 9.3623 15.7466 9.15034 15.5903 8.99406C15.434 8.83778 15.2221 8.74998 15.001 8.74998C14.78 8.74998 14.5681 8.83778 14.4118 8.99406C14.2555 9.15034 14.1677 9.3623 14.1677 9.58331V17.7333C13.9158 17.8787 13.7064 18.0876 13.5602 18.339C13.414 18.5905 13.3361 18.8758 13.3344 19.1666C13.3344 19.6087 13.51 20.0326 13.8225 20.3452C14.1351 20.6577 14.559 20.8333 15.001 20.8333C15.4431 20.8333 15.867 20.6577 16.1796 20.3452C16.4921 20.0326 16.6677 19.6087 16.6677 19.1666C16.666 18.8758 16.5881 18.5905 16.4419 18.339C16.2957 18.0876 16.0863 17.8787 15.8344 17.7333ZM18.751 15.8333V9.58331C18.751 8.58875 18.356 7.63492 17.6527 6.93166C16.9494 6.2284 15.9956 5.83331 15.001 5.83331C14.0065 5.83331 13.0527 6.2284 12.3494 6.93166C11.6461 7.63492 11.251 8.58875 11.251 9.58331V15.8333C10.6751 16.486 10.2795 17.2777 10.1034 18.1302C9.92729 18.9826 9.97679 19.8663 10.247 20.6938C10.5172 21.5212 10.9988 22.2638 11.644 22.8481C12.2893 23.4323 13.0759 23.838 13.926 24.025C14.2792 24.1055 14.6391 24.1529 15.001 24.1666C15.9682 24.1711 16.916 23.895 17.7294 23.3718C18.5428 22.8485 19.187 22.1005 19.5839 21.2185C19.9808 20.3365 20.1134 19.3583 19.9656 18.4025C19.8177 17.4467 19.3959 16.5542 18.751 15.8333ZM17.0844 21.725C16.6455 22.0818 16.1229 22.3211 15.566 22.4203C15.0091 22.5195 14.4361 22.4753 13.901 22.292C13.3658 22.1086 12.8862 21.792 12.5071 21.3721C12.1281 20.9522 11.8622 20.4427 11.7344 19.8916C11.6056 19.3346 11.6223 18.7538 11.7829 18.2051C11.9434 17.6563 12.2424 17.1581 12.651 16.7583C12.7298 16.6811 12.7924 16.5891 12.8353 16.4875C12.8782 16.386 12.9006 16.2769 12.901 16.1666V9.58331C12.901 9.03078 13.1205 8.50087 13.5112 8.11017C13.9019 7.71947 14.4318 7.49998 14.9844 7.49998C15.5369 7.49998 16.0668 7.71947 16.4575 8.11017C16.8482 8.50087 17.0677 9.03078 17.0677 9.58331V16.2C17.0682 16.3102 17.0905 16.4193 17.1334 16.5209C17.1763 16.6224 17.239 16.7145 17.3177 16.7916C17.6583 17.1207 17.9249 17.5186 18.0997 17.9588C18.2745 18.3989 18.3535 18.8713 18.3314 19.3444C18.3094 19.8175 18.1867 20.2805 17.9717 20.7024C17.7567 21.1244 17.4542 21.4957 17.0844 21.7916V21.725Z" fill="#668E73"/>
</svg>
