<svg width="30" height="30" viewBox="0 0 30 30" fill="none" xmlns="http://www.w3.org/2000/svg">
<rect width="30" height="30" rx="10" fill="white"/>
<path d="M20.5218 19.2273C19.7018 20.5871 18.6655 20.1548 17.6923 19.5785C16.7191 19.0022 15.8 18.3088 15.2143 19.1283C14.5745 19.8307 15.0701 20.9563 15.3224 21.9468C15.5747 22.9464 15.5928 23.8109 13.9978 24C12.7363 23.8289 12.8084 22.7843 13.0156 21.6767C13.2229 20.5691 13.5473 19.3984 12.7363 18.9842C12.0875 18.5519 11.637 19.2994 11.0693 20.0378C10.4836 20.7672 9.81674 21.4786 8.71741 20.9563C7.7262 20.1368 8.10466 19.6596 8.6273 19.0472C9.14993 18.4349 9.82576 17.6154 9.43828 16.1746C9.27609 15.5893 8.4651 15.7243 7.66312 15.7063C6.87917 15.6883 6.08621 15.5262 6.00511 14.3556C5.94203 13.6442 6.47368 13.356 7.02335 13.1309C7.58203 12.9058 8.14972 12.7437 8.15873 12.1763C8.18576 11.627 7.81631 11.2398 7.58203 10.8346C7.34774 10.4294 7.24862 10.0061 7.8073 9.37577C8.75345 8.60133 9.51037 9.2587 10.2673 9.9701C11.0242 10.6815 11.7721 11.4289 12.7003 10.8436C13.4392 10.3573 12.7633 9.50184 12.2407 8.66436C11.7181 7.82689 11.3486 7.02544 12.7003 6.65623C13.8717 6.33205 14.3222 7.1335 14.7277 8.06102C15.1422 8.98855 15.5027 10.0421 16.4939 10.2312C17.9086 10.4924 18.9358 8.83546 19.918 7.52072C20.9002 6.20598 21.8644 5.22443 23.0989 6.84534C24.4505 8.5473 23.162 9.33974 21.6571 10.0421C20.1523 10.6995 18.4222 11.2758 18.8367 12.5455C19.08 13.284 19.873 12.8787 20.711 12.5996C21.54 12.3204 22.4321 12.1673 22.8646 13.4371C23.3242 14.7788 22.2339 15.085 21.0084 15.2111C19.7829 15.3371 18.4132 15.2831 18.3231 15.8954C18.224 16.5348 19.044 16.7959 19.7558 17.1742C20.4677 17.5614 21.0714 18.0747 20.5218 19.2273ZM22.6484 21.2985C21.7923 21.2985 21.3508 20.6321 21.3508 19.9477C21.3508 19.2633 21.7833 18.597 22.6484 18.597C23.5495 18.597 24 19.2633 24 19.9477C24 20.6321 23.5495 21.2985 22.6484 21.2985Z" fill="#975FA1"/>
</svg>
